<svg width="835" height="161" viewBox="0 0 835 161" fill="none" xmlns="http://www.w3.org/2000/svg">
  <path fill-rule="evenodd" clip-rule="evenodd" d="M62.276 27.93c0 12.157-9.836 22.03-21.97 22.03H0v19.96h16.69v36.275c0 21.73 12.77 32.596 34.634 32.596 5.249 0 10.67-.701 16.27-2.102v-19.803c-6.124.525-9.796.701-11.197.701-11.196 0-16.09-3.68-16.09-13.496V69.92c15.089 0 28.314-7.991 35.694-19.978a41.835 41.835 0 0 0 6.218-22.011H62.276Z" fill="#fff"/>
  <path fill-rule="evenodd" clip-rule="evenodd" d="M91.751 35.145c.63-.01 1.28.202 1.75.582l.166.15 5.785 5.797c.97.972.964 2.57-.014 3.638-.413.447-1.011.703-1.688.717-.635 0-1.278-.205-1.747-.583l-.168-.15-5.783-5.794c-.966-.97-.96-2.569.015-3.64.411-.448 1.009-.703 1.684-.717Zm15.701-9.75c1.389 0 2.486 1.111 2.556 2.585.027.604-.213 1.206-.677 1.693a2.71 2.71 0 0 1-1.654.83l-.225.012H96.618c-1.373 0-2.494-1.134-2.556-2.584-.028-.605.211-1.206.677-1.694a2.711 2.711 0 0 1 1.653-.83l.226-.012h10.834ZM66.702 9.982c.626 0 1.24.214 1.693.586l.162.146 5.785 5.797c.971.97.965 2.57-.014 3.638-.413.448-1.01.703-1.687.718a2.751 2.751 0 0 1-1.748-.583l-.168-.15-5.782-5.796c-.97-.972-.964-2.571.016-3.64.364-.397.876-.642 1.46-.702l.223-.014h.06Zm32.773-1.965c.658 0 1.329.245 1.867.738.446.411.7 1.011.715 1.686a2.719 2.719 0 0 1-.581 1.753l-.15.167-7.658 7.671c-.972.975-2.566.964-3.632-.016-.448-.411-.702-1.01-.717-1.687a2.724 2.724 0 0 1 .582-1.752l.15-.167 7.66-7.671a2.47 2.47 0 0 1 1.764-.722ZM82.36 0c.571 0 1.135.238 1.597.68.467.448.767 1.055.829 1.657l.011.225v10.854c0 1.392-1.109 2.493-2.58 2.56-.598.02-1.202-.213-1.69-.677a2.724 2.724 0 0 1-.829-1.657l-.011-.226V2.562c0-1.398 1.107-2.499 2.58-2.56L82.36 0ZM43.145 29.64c0 8.104-6.558 14.674-14.648 14.674S13.85 37.744 13.85 29.64c0-8.105 6.558-14.675 14.648-14.675s14.648 6.57 14.648 14.675Z" fill="#FFB300"/>
  <path d="m264.007 135-34.17-46.92 31.62-37.23h-27.2l-30.26 35.87V7.5h-22.95V135h22.95V88.42l33.83 46.58h26.18Zm80.927-46.92c0-21.76-15.98-39.1-39.61-39.1-24.82 0-44.03 19.21-44.03 44.03s19.38 44.03 46.07 44.03c12.92 0 24.14-4.59 33.66-12.58l-9.52-15.64c-6.8 5.27-14.28 8.5-23.46 8.5-12.24 0-20.91-5.95-23.63-16.66h58.99c.68-2.89 1.53-7.82 1.53-12.58Zm-40.46-20.57c9.69 0 18.02 6.29 18.19 17h-38.25c2.55-10.54 10.37-17 20.06-17Zm92.027 69.19c23.8 0 42.67-18.87 42.67-42.84 0-23.97-18.87-42.67-42.5-42.67-23.8 0-42.5 18.53-42.5 42.67 0 23.97 18.7 42.84 42.33 42.84Zm0-7.99c-19.04 0-33.49-14.96-33.49-34.68 0-19.89 14.45-34.85 33.66-34.85 18.87 0 33.66 14.96 33.66 34.85 0 19.55-14.79 34.68-33.83 34.68Zm96.612-76.33c-10.88 0-21.25 4.76-27.2 14.45V52.89h-8.16V135h8.5V86.72c0-17 14.28-26.35 27.88-26.35h4.25v-7.48c-1.53-.17-2.89-.51-5.27-.51ZM576.386 7.5v61.37c-6.29-10.88-19.21-17.68-33.15-17.68-23.46 0-40.8 18.87-40.8 42.84 0 23.8 17.51 42.67 40.8 42.67 14.28 0 27.37-6.97 33.49-18.36V135h8.16V7.5h-8.5Zm-32.3 121.21c-19.04 0-32.81-15.13-32.81-34.85s13.77-34.68 32.81-34.68c16.15 0 32.3 10.37 32.3 34.85 0 24.31-16.15 34.68-32.3 34.68Zm137.495-40.97c0-22.44-16.66-36.55-36.72-36.55-23.29 0-41.48 19.04-41.48 42.84 0 23.97 18.7 42.67 42.5 42.67 13.6 0 24.99-5.95 32.98-15.3l-5.44-5.61c-6.8 7.99-15.98 12.92-27.37 12.92-18.7 0-32.81-13.6-33.83-32.81h68.68c.34-1.36.68-4.59.68-8.16Zm-37.06-28.73c15.47 0 28.9 10.88 28.22 29.24h-60.18c2.38-16.83 15.3-29.24 31.96-29.24Zm90.995-6.63c-10.88 0-21.25 4.76-27.2 14.45V52.89h-8.16V135h8.5V86.72c0-17 14.28-26.35 27.88-26.35h4.25v-7.48c-1.53-.17-2.89-.51-5.27-.51Zm40.733 84.32c14.28 0 27.37-7.65 27.37-22.78 0-12.41-9.18-18.36-21.25-23.63l-7.65-3.4c-9.52-4.08-15.47-7.14-15.47-14.79 0-9.01 7.99-12.92 16.66-12.92 8.84 0 15.81 4.25 21.42 10.54l5.61-5.44c-5.61-7.14-14.45-13.09-26.52-13.09-13.77 0-26.18 7.65-26.18 21.42 0 11.56 9.18 17.17 20.23 21.93l7.48 3.23c9.18 4.08 16.83 7.31 16.83 16.49 0 9.69-8.67 14.45-18.36 14.45-11.05 0-18.87-5.95-25.67-14.62l-5.95 5.61c6.46 9.18 17 17 31.45 17Z" fill="#fff"/>
  <path fill-rule="evenodd" clip-rule="evenodd" d="M819.384 29.251v2.541h-4.326V43h-2.753V31.792H808v-2.541h11.384Zm3.333-.251 5.693 7.438L834.101 29H835v14h-2.755v-7.332l-3.388 4.334h-.896l-3.387-4.334V43h-2.756V29h.899ZM119.252 49l.636.005c11.19.154 20.44 4.41 26.363 12.005l.332.434V50.875h21.314v84.384H146.24v-9.888l-.338.423c-5.914 7.265-14.99 11.354-26 11.509l-.65.004-.71-.005C95.184 136.931 78 118.3 78 93.153c0-25.146 17.184-43.777 40.542-44.148l.71-.005Zm3.877 20.8.421-.004.398.003c11.379.185 20.869 8.332 21.085 22.845l.004.509-.004.514c-.216 14.67-9.706 22.49-21.085 22.668l-.398.003-.421-.004c-12.172-.21-21.582-9.529-21.582-23.181 0-13.65 9.41-23.14 21.582-23.354Z" fill="#fff"/>
</svg>